<?xml version="1.0" encoding="iso-8859-1"?>
<!-- Uploaded to: SVG Repo, www.svgrepo.com, Generator: SVG Repo Mixer Tools -->
<svg height="800px" width="800px" version="1.1" id="Layer_1" xmlns="http://www.w3.org/2000/svg" xmlns:xlink="http://www.w3.org/1999/xlink" 
	 viewBox="0 0 512 512" xml:space="preserve">
<path style="fill:#2BA5F7;" d="M498.835,85.112c8.896,26.128,0.078,54.002-20.046,70.557L439.884,41.478
	C465.921,42.299,489.926,58.997,498.835,85.112z"/>
<polygon style="fill:#F7B239;" points="478.79,155.669 484.456,172.302 415.996,195.617 408.259,172.888 373.509,70.902 
	365.759,48.173 434.218,24.858 439.884,41.478 "/>
<polygon style="fill:#E09B2D;" points="484.456,172.302 415.996,195.617 400.06,146.954 468.52,123.639 "/>
<path style="fill:#F95428;" d="M373.509,70.902l34.738,101.986l-85.588,29.163c-8.583-25.164-32.419-43.269-60.488-43.269
	c-35.272,0-63.875,28.603-63.875,63.888c0,7.203,1.198,14.132,3.4,20.606h-0.013L85.277,282.937l-7.502-22.025l-19.733-57.935
	L50.54,180.95L373.509,70.902z"/>
<polygon style="fill:#F7B239;" points="372.636,450.907 372.636,487.156 282.88,487.156 282.88,450.907 298.51,450.907 
	354.166,450.907 "/>
<path style="fill:#F95428;" d="M354.166,450.907H298.51l-39.362-124.064l-0.56-1.784l-8.349-35.063l-1.146-4.793
	c4.22,0.886,8.597,1.342,13.077,1.342c7.737,0,15.148-1.368,21.999-3.895c6.421-2.344,12.374-5.705,17.623-9.873l9.235,31.416
	L354.166,450.907z"/>
<polygon style="fill:#E54728;" points="407.962,175.312 87.863,283.659 71.927,234.997 392.028,126.649 "/>
<path style="fill:#F7B239;" d="M322.659,202.051c2.201,6.473,3.4,13.403,3.4,20.619c0,20.306-9.482,38.411-24.266,50.094v0.013
	c-10.876,8.623-24.643,13.767-39.622,13.767c-4.481,0-8.857-0.456-13.077-1.342c-12.569-2.618-23.784-8.922-32.458-17.74
	c-6.656-6.773-11.814-15.005-14.94-24.188c-2.201-6.473-3.4-13.403-3.4-20.606c0-35.285,28.603-63.888,63.875-63.888
	C290.239,158.782,314.075,176.887,322.659,202.051z M291.646,222.67c0-16.281-13.194-29.489-29.476-29.489
	s-29.476,13.207-29.476,29.489c0,16.268,13.194,29.476,29.476,29.476S291.646,238.938,291.646,222.67z"/>
<g>
	<path style="fill:#F95428;" d="M262.171,193.181c16.281,0,29.476,13.207,29.476,29.489c0,16.268-13.194,29.476-29.476,29.476
		s-29.476-13.207-29.476-29.476C232.695,206.388,245.889,193.181,262.171,193.181z"/>
	<path style="fill:#F95428;" d="M258.589,325.06l-0.547,1.719l-39.388,124.129h-55.656l45.028-153.982l8.61-29.463
		c6.565,6.669,14.575,11.905,23.523,15.174c2.879,1.068,5.861,1.928,8.935,2.566l1.146,4.793L258.589,325.06z"/>
</g>
<polygon style="fill:#F7B239;" points="234.284,450.907 234.284,487.156 144.528,487.156 144.528,450.907 162.998,450.907 
	218.654,450.907 "/>
<path style="fill:#E54728;" d="M301.793,272.777c-5.249,4.168-11.202,7.528-17.623,9.873c-5.392,6.057-13.246,9.873-21.999,9.873
	c-4.246,0-8.284-0.899-11.931-2.527c-3.881-1.706-7.307-4.233-10.081-7.359c-8.948-3.269-16.959-8.505-23.523-15.174l-8.61,29.463
	c2.462,3.947,5.366,7.607,8.61,10.915c8.675,8.818,19.889,15.122,32.458,17.74c2.918,0.612,5.9,1.016,8.948,1.198
	c0.365,0.039,0.729,0.052,1.107,0.065c1.003,0.052,2.006,0.078,3.022,0.078c14.979,0,28.746-5.145,39.622-13.767v-0.013
	c3.373-2.657,6.46-5.653,9.235-8.948L301.793,272.777z"/>
<polygon style="fill:#F7B239;" points="58.042,202.976 77.775,260.911 29.504,277.349 9.771,219.426 "/>
<polygon style="fill:#E09B2D;" points="67.449,234.176 77.775,260.911 29.504,277.349 19.178,250.627 "/>
<g>
	<path style="fill:#FFFFFF;" d="M449.712,160.057c-4.066,0-7.862-2.558-9.246-6.621l-19.988-58.665
		c-1.74-5.107,0.989-10.657,6.096-12.397c5.11-1.739,10.658,0.99,12.397,6.096l19.988,58.665c1.74,5.107-0.989,10.657-6.096,12.397
		C451.819,159.889,450.756,160.057,449.712,160.057z"/>
	<circle style="fill:#FFFFFF;" cx="420.305" cy="65.816" r="9.769"/>
	<circle style="fill:#FFFFFF;" cx="483.489" cy="88.473" r="9.769"/>
</g>
<g>
	<path style="fill:#333333;" d="M490.101,158.575c19.891-19.784,27.139-49.717,17.976-76.608s-33.18-46.171-61.011-49.694
		l-3.601-10.57c-1.74-5.106-7.286-7.837-12.397-6.096l-68.456,23.324c-2.453,0.836-4.473,2.61-5.616,4.936
		c-1.142,2.325-1.316,5.009-0.481,7.462l4.591,13.477L47.386,171.704c-5.106,1.74-7.836,7.29-6.097,12.397l4.354,12.781
		L6.621,210.179c-5.107,1.74-7.836,7.29-6.096,12.397L20.26,280.5c1.385,4.063,5.18,6.621,9.246,6.621
		c1.045,0,2.107-0.169,3.151-0.525l39.019-13.295l4.356,12.784c0.836,2.453,2.612,4.473,4.936,5.616
		c1.355,0.667,2.83,1.003,4.311,1.003c1.062,0,2.127-0.173,3.151-0.522l107.819-36.738c2.598,5.203,5.788,10.059,9.491,14.475
		l-50.066,171.214h-11.143c-5.395,0-9.769,4.374-9.769,9.769v36.249c0,5.395,4.374,9.769,9.769,9.769h89.754
		c5.395,0,9.769-4.374,9.769-9.769v-36.249c0-5.395-4.374-9.769-9.769-9.769h-2.282l26.58-83.771l26.58,83.771h-2.282
		c-5.395,0-9.769,4.374-9.769,9.769v36.249c0,5.395,4.374,9.769,9.769,9.769h89.754c5.395,0,9.769-4.374,9.769-9.769v-36.249
		c0-5.395-4.374-9.769-9.769-9.769h-11.155l-48.565-165.168c14.094-13.425,22.906-32.349,22.906-53.304
		c0-4.894-0.491-9.672-1.405-14.301l67.739-23.079l4.595,13.487c0.836,2.453,2.61,4.473,4.937,5.616
		c1.355,0.666,2.83,1.003,4.311,1.003c1.062,0,2.127-0.173,3.151-0.522l68.456-23.325c5.107-1.74,7.836-7.29,6.096-12.397
		L490.101,158.575z M489.584,88.267c5.65,16.582,2.83,34.734-6.825,48.758l-28.35-83.205
		C470.618,59.031,483.934,71.685,489.584,88.267z M35.603,264.953l-13.434-39.431l29.773-10.145l13.435,39.431L35.603,264.953z
		 M224.516,477.383H154.3v-16.711h8.696h55.659h5.861v16.711H224.516z M176.029,441.135l45.868-156.857
		c5.834,3.827,12.237,6.85,19.058,8.905l7.497,31.505l-36.947,116.445h-35.476V441.135z M362.867,477.383H292.65v-16.711h5.861
		h55.659h8.695v16.711H362.867z M341.117,441.135h-35.455l-37.658-118.683l-6.222-26.149c0.132,0,0.26,0.01,0.392,0.01
		c12.228,0,23.759-3.013,33.919-8.307L341.117,441.135z M262.173,276.776c-29.838,0-54.113-24.275-54.113-54.113
		s24.275-54.113,54.113-54.113s54.113,24.275,54.113,54.113S292.011,276.776,262.173,276.776z M328.095,189.877
		c-12.085-24.198-37.087-40.863-65.922-40.863c-40.611,0-73.65,33.039-73.65,73.65c0,4.891,0.49,9.668,1.404,14.295l-98.553,33.58
		l-28.441-83.492L367.406,83.295l28.448,83.493L328.095,189.877z M422.095,183.222l-4.557-13.377
		c-0.012-0.038-0.02-0.076-0.033-0.113l-30.051-88.181l-9.295-27.28l49.963-17.022l43.936,128.949L422.095,183.222z"/>
	<path style="fill:#333333;" d="M262.173,183.416c-21.641,0-39.247,17.606-39.247,39.247s17.606,39.247,39.247,39.247
		s39.247-17.606,39.247-39.247S283.814,183.416,262.173,183.416z M262.173,242.373c-10.868,0-19.709-8.841-19.709-19.709
		s8.841-19.71,19.709-19.71s19.71,8.841,19.71,19.71S273.041,242.373,262.173,242.373z"/>
</g>
</svg>