<?xml version="1.0" encoding="iso-8859-1"?>
<!-- Uploaded to: SVG Repo, www.svgrepo.com, Generator: SVG Repo Mixer Tools -->
<svg version="1.1" id="Layer_1" xmlns="http://www.w3.org/2000/svg" xmlns:xlink="http://www.w3.org/1999/xlink" 
	 viewBox="0 0 512 512" xml:space="preserve">
<circle style="fill:#273B7A;" cx="256" cy="256" r="256"/>
<path style="fill:#121149;" d="M512,256c0-3.646-0.095-7.268-0.247-10.878L398.693,129.888l-62.747,71.644l-2.988-2.988
	l-224.12,204.616l105.438,105.438C227.855,510.824,241.79,512,256,512C397.384,512,512,397.384,512,256z"/>
<path style="fill:#FFEDB5;" d="M169.179,383.047l-60.34,20.113l20.113-60.34l228.762-228.762c6.956-6.956,18.235-6.956,25.193,0
	l15.034,15.034c6.956,6.956,6.956,18.235,0,25.193L169.179,383.047z"/>
<path style="fill:#FEE187;" d="M390.425,121.575L108.841,403.159l60.338-20.113l228.762-228.762c6.956-6.958,6.956-18.235,0-25.193
	L390.425,121.575z"/>
<path style="fill:#B54324;" d="M397.943,154.284c6.956-6.956,6.956-18.235,0-25.193l-15.034-15.034
	c-6.956-6.956-18.235-6.956-25.193,0l-28.239,28.239l40.227,40.227L397.943,154.284z"/>
<path style="fill:#930000;" d="M390.425,121.575l-40.836,40.836l20.113,20.113l28.239-28.239c6.956-6.958,6.956-18.235,0-25.193
	L390.425,121.575z"/>
<polygon style="fill:#808183;" points="131.696,395.542 116.458,380.304 108.841,403.159 "/>
<polygon style="fill:#59595B;" points="124.078,387.924 108.841,403.159 131.696,395.542 "/>
<rect x="107.416" y="233.914" transform="matrix(-0.7071 0.7071 -0.7071 -0.7071 611.6716 271.3542)" style="fill:#FFC61B;" width="284.442" height="56.888"/>
<g>
	
		<rect x="245.476" y="130.207" transform="matrix(0.7071 0.7071 -0.7071 0.7071 268.6996 -103.8423)" style="fill:#EAA22F;" width="28.444" height="284.442"/>
	
		<rect x="107.416" y="248.567" transform="matrix(-0.7071 0.7071 -0.7071 -0.7071 611.6716 271.3542)" style="fill:#EAA22F;" width="284.442" height="27.582"/>
</g>
<rect x="247.614" y="125.03" transform="matrix(0.7071 0.7071 -0.7071 0.7071 263.5188 -101.6896)" style="fill:#FF5419;" width="13.791" height="284.442"/>
</svg>