<?xml version="1.0" encoding="iso-8859-1"?>
<!-- Uploaded to: SVG Repo, www.svgrepo.com, Generator: SVG Repo Mixer Tools -->
<svg height="800px" width="800px" version="1.1" id="Layer_1" xmlns="http://www.w3.org/2000/svg" xmlns:xlink="http://www.w3.org/1999/xlink" 
	 viewBox="0 0 512 512" xml:space="preserve">
<path style="fill:#00D7DF;" d="M256,512c-68.48,0-132.797-26.6-181.096-74.904C26.6,388.797,0,324.48,0,256
	c0-68.486,26.6-132.797,74.904-181.096C123.204,26.6,187.515,0,256,0c68.48,0,132.797,26.6,181.096,74.904
	C485.4,123.203,512,187.52,512,256c0,68.486-26.6,132.797-74.904,181.096l0,0l0,0C388.797,485.4,324.486,512,256,512z"/>
<path style="fill:#00B6BD;" d="M437.096,437.096C485.4,388.797,512,324.486,512,256c0-68.48-26.6-132.797-74.904-181.096
	C388.797,26.6,324.48,0,256,0v512C324.486,512,388.797,485.4,437.096,437.096z"/>
<path style="fill:#FFFFFF;" d="M385.943,126.056c-6.526-6.526-17.099-6.526-23.624,0l-36.275,36.275
	c-20.083-15.065-44.419-23.219-70.044-23.219c-31.281,0-60.648,12.143-82.695,34.19c-41.585,41.59-45.235,106.958-10.964,152.73
	l-36.284,36.284c-6.526,6.52-6.526,17.103,0,23.624c3.263,3.263,7.538,4.895,11.812,4.895c4.274,0,8.549-1.632,11.812-4.895
	l36.275-36.275c20.083,15.065,44.419,23.219,70.044,23.219c31.281,0,60.648-12.143,82.695-34.19
	c41.585-41.59,45.235-106.958,10.964-152.73l36.284-36.284C392.469,143.161,392.469,132.578,385.943,126.056z M196.929,196.929
	c15.739-15.733,36.714-24.402,59.071-24.402c16.656,0,32.542,4.818,46.071,13.777L186.307,302.07
	C164.869,269.651,168.409,225.455,196.929,196.929z M315.071,315.071c-15.739,15.733-36.714,24.402-59.071,24.402
	c-16.656,0-32.542-4.818-46.071-13.777l115.764-115.764C347.132,242.349,343.592,286.545,315.071,315.071z"/>
<path style="fill:#FFE6B3;" d="M385.943,126.056c-6.526-6.526-17.099-6.526-23.624,0l-36.275,36.275
	c-20.083-15.065-44.419-23.219-70.044-23.219v33.413c16.656,0,32.542,4.818,46.071,13.777L256,232.375v47.248l69.694-69.694
	c21.438,32.418,17.898,76.615-10.622,105.141c-15.739,15.733-36.714,24.402-59.071,24.402v33.413
	c31.281,0,60.648-12.143,82.695-34.19c41.585-41.59,45.235-106.958,10.964-152.73l36.284-36.284
	C392.469,143.161,392.469,132.578,385.943,126.056z"/>
</svg>