<?xml version="1.0" encoding="iso-8859-1"?>
<!-- Uploaded to: SVG Repo, www.svgrepo.com, Generator: SVG Repo Mixer Tools -->
<svg version="1.1" id="Layer_1" xmlns="http://www.w3.org/2000/svg" xmlns:xlink="http://www.w3.org/1999/xlink" 
	 viewBox="0 0 512 512" xml:space="preserve">
<path style="fill:#FEBBA0;" d="M213.864,312.545v20.353c0,6.8-4.088,12.932-10.365,15.549l-67.241,28.017
	c-14.206,5.92-23.459,22.008-23.459,37.397v81.092h286.352V413.86c0-15.389-9.254-31.479-23.459-37.397l-67.241-28.017
	c-6.277-2.615-10.365-8.749-10.365-15.549v-20.353H213.864z"/>
<path style="fill:#102F50;" d="M375.691,376.463l-67.241-28.017c-5.2-2.166-8.889-6.749-10.005-12.124
	c-8.884,14.064-24.556,23.413-42.42,23.413c-17.916,0-33.629-9.403-42.498-23.535c-1.085,5.427-4.789,10.063-10.029,12.247
	l-67.241,28.017c-14.206,5.92-23.459,22.008-23.459,37.397v81.092h286.352v-81.092C399.15,398.472,389.896,382.382,375.691,376.463z
	"/>
<g>
	<path style="fill:#07253F;" d="M213.527,336.2c-1.085,5.427-4.789,10.063-10.029,12.247l-1.628,0.678l19.502,54.624l34.653-44.014
		C238.108,359.735,222.397,350.333,213.527,336.2z"/>
	<path style="fill:#07253F;" d="M298.526,336.2c1.086,5.427,4.789,10.063,10.029,12.247l1.628,0.678l-19.502,54.624l-34.653-44.014
		C273.944,359.735,289.656,350.333,298.526,336.2z"/>
</g>
<path style="fill:#FEBBA0;" d="M350.006,192.59v-30.443c0-51.83-42.017-93.848-93.848-93.848c-51.831,0-93.848,42.017-93.848,93.848
	h-0.368v30.443c-12.925,0-23.403,10.478-23.403,23.403c0,12.925,10.478,23.403,23.403,23.403v17.472
	c1.126,14.735,8.311,27.853,19.192,35.038l56.575,32.343c11.36,7.503,25.173,7.503,36.533,0l56.405-32.343
	c10.879-7.185,18.233-20.303,19.36-35.038v-17.472c12.925,0,23.403-10.478,23.403-23.403
	C373.409,203.067,362.931,192.59,350.006,192.59z"/>
<g>
	<path style="fill:#FFA036;" d="M371.064,136.609h-6.441c-1.741-27.258-13.421-52.623-33.137-71.753
		c-14.55-14.118-32.371-23.75-51.698-28.199V21.232c0-2.311-1.665-4.184-3.721-4.184h-40.184c-2.055,0-3.721,1.873-3.721,4.184
		V36.22c-20.091,4.232-38.636,14.037-53.683,28.636c-19.715,19.13-31.397,44.496-33.138,71.753h-4.457
		c-2.055,0-3.721,1.665-3.721,3.721v20.835c0,2.055,1.665,3.721,3.721,3.721h230.177c2.055,0,3.72-1.665,3.72-3.721v-20.835
		C374.784,138.274,373.119,136.609,371.064,136.609z"/>
	<path style="fill:#FFA036;" d="M84.535,315.807c27.802,0,53.341,7.62,73.453,20.346c-4.144-29.083-35.44-51.692-73.453-51.692
		s-69.311,22.609-73.453,51.692C31.194,323.426,56.733,315.807,84.535,315.807z"/>
</g>
<circle style="fill:#EEB45D;" cx="256.162" cy="106.287" r="26.946"/>
<path style="fill:#ECEBED;" d="M441.992,249.426c-6.525,0-12.533-2.319-17.246-6.172v42.651h34.492v-42.651
	C454.525,247.106,448.516,249.426,441.992,249.426z"/>
<path style="fill:#EEB45D;" d="M469.325,140.591v81.501c0,15.034-12.3,27.334-27.334,27.334l0,0
	c-15.034,0-27.334-12.3-27.334-27.334v-81.501H469.325z"/>
<rect x="409.026" y="102.014" style="fill:#FFA036;" width="66.407" height="38.573"/>
<path d="M10.585,505.4h-0.137C4.679,505.4,0,500.723,0,494.952s4.679-10.448,10.448-10.448h0.137
	c5.769,0,10.448,4.678,10.448,10.448S16.354,505.4,10.585,505.4z"/>
<path d="M501.501,505.4h-0.137c-5.769,0-10.448-4.678-10.448-10.448s4.679-10.448,10.448-10.448h0.137
	c5.769,0,10.448,4.678,10.448,10.448S507.27,505.4,501.501,505.4z"/>
<path d="M296.554,460.474h-0.137c-5.769,0-10.448-4.678-10.448-10.448s4.679-10.448,10.448-10.448h0.137
	c5.769,0,10.448,4.678,10.448,10.448S302.324,460.474,296.554,460.474z"/>
<path d="M369.553,460.474h-39.199c-5.769,0-10.448-4.678-10.448-10.448s4.679-10.448,10.448-10.448h39.199
	c5.769,0,10.448,4.678,10.448,10.448S375.322,460.474,369.553,460.474z"/>
<path d="M215.279,460.474h-0.137c-5.769,0-10.448-4.678-10.448-10.448s4.679-10.448,10.448-10.448h0.137
	c5.769,0,10.448,4.678,10.448,10.448S221.048,460.474,215.279,460.474z"/>
<path d="M181.341,460.474h-39.199c-5.769,0-10.448-4.678-10.448-10.448s4.679-10.448,10.448-10.448h39.199
	c5.769,0,10.448,4.678,10.448,10.448S187.111,460.474,181.341,460.474z"/>
<path d="M294.078,228.901c6.439,0,11.678-5.239,11.678-11.678c0-6.44-5.239-11.679-11.678-11.679s-11.679,5.239-11.679,11.679
	C282.399,223.662,287.639,228.901,294.078,228.901z"/>
<path d="M217.871,205.544c-6.439,0-11.678,5.239-11.678,11.679c0,6.439,5.239,11.678,11.678,11.678s11.679-5.239,11.679-11.678
	C229.549,210.784,224.31,205.544,217.871,205.544z"/>
<path d="M276.675,265.219c0-5.77-4.679-10.448-10.448-10.448h-20.418c-5.769,0-10.448,4.678-10.448,10.448
	c0,11.39,9.267,20.658,20.658,20.658C267.409,285.876,276.675,276.609,276.675,265.219z"/>
<path d="M467.564,484.504h-57.965V413.86c0-20.366-12.291-39.709-29.887-47.042l-67.241-28.016
	c-2.391-0.996-3.936-3.313-3.936-5.904V316.63l27.311-15.659c0.19-0.11,0.377-0.225,0.56-0.346
	c13.674-9.03,22.653-25.09,24.019-42.96c0.021-0.264,0.03-0.531,0.03-0.796v-8.674c13.568-4.413,23.402-17.181,23.402-32.202
	s-9.835-27.788-23.402-32.202v-8.459h10.609c7.813,0,14.169-6.355,14.169-14.168v-20.835c0-6.782-4.789-12.465-11.164-13.848
	c-3.769-26.224-16.102-50.489-35.309-69.125c-13.751-13.342-30.392-23.167-48.525-28.713v-7.413c0-8.069-6.357-14.632-14.169-14.632
	h-40.182c-7.813,0-14.169,6.564-14.169,14.632v6.824c-18.909,5.421-36.233,15.449-50.511,29.301
	c-19.357,18.783-31.734,43.283-35.396,69.743c-5.313,2.046-9.092,7.204-9.092,13.228v20.835c0,7.813,6.357,14.168,14.169,14.168
	h10.609v8.459c-13.568,4.413-23.402,17.181-23.402,32.202s9.835,27.788,23.402,32.202v8.674c0,0.265,0.01,0.532,0.03,0.796
	c1.372,17.943,10.288,34.003,23.851,42.96c0.187,0.124,0.377,0.241,0.573,0.352l27.467,15.702v16.219
	c0,2.59-1.545,4.907-3.936,5.904l-67.241,28.017c-17.597,7.332-29.887,26.677-29.887,47.041v70.644h-7.368V326.665
	c20.963,1.597,41.041,7.951,57.42,18.314c1.706,1.08,3.646,1.619,5.587,1.619c1.975,0,3.948-0.559,5.674-1.675
	c3.421-2.213,5.245-6.212,4.67-10.247c-4.928-34.586-40.953-60.666-83.798-60.666S5.666,300.094,0.738,334.68
	c-0.575,4.034,1.249,8.033,4.67,10.247c3.422,2.213,7.816,2.235,11.26,0.055c16.379-10.363,36.457-16.717,57.42-18.314v157.837
	H44.385c-5.769,0-10.448,4.678-10.448,10.448c0,5.77,4.679,10.448,10.448,10.448h423.178c5.769,0,10.448-4.678,10.448-10.448
	C478.011,489.183,473.333,484.504,467.564,484.504z M34.408,313.51c2.038-1.979,4.291-3.848,6.744-5.588
	c11.831-8.392,27.239-13.014,43.383-13.014s31.552,4.622,43.383,13.014c2.453,1.74,4.706,3.61,6.744,5.588
	c-15.665-5.374-32.59-8.151-50.128-8.151S50.073,308.137,34.408,313.51z M236.913,367.121l-12.056,15.314l-10.19-28.542
	C221.057,359.884,228.637,364.385,236.913,367.121z M297.388,353.887l-10.192,28.547l-12.059-15.317
	C283.413,364.381,290.997,359.879,297.388,353.887z M147.613,146.809c4.447-0.986,7.856-4.81,8.157-9.534
	c1.573-24.627,12.222-47.683,29.987-64.92c13.505-13.104,30.296-22.063,48.561-25.911c4.834-1.019,8.294-5.284,8.294-10.223v-8.725
	h26.728v9.163c0,4.868,3.361,9.09,8.104,10.182c17.557,4.041,33.728,12.863,46.766,25.515c17.765,17.237,28.413,40.292,29.987,64.92
	c0.345,5.405,4.758,9.633,10.141,9.778v7.385H147.613V146.809z M172.391,256.448v-17.052c0-5.77-4.679-10.448-10.448-10.448
	c-7.143,0-12.954-5.812-12.954-12.954c0-7.142,5.812-12.954,12.954-12.954c5.769,0,10.448-4.678,10.448-10.448v-17.257h167.167
	v17.257c0,5.77,4.679,10.448,10.448,10.448c7.143,0,12.954,5.812,12.954,12.954c0,7.142-5.812,12.954-12.954,12.954
	c-5.769,0-10.448,4.678-10.448,10.448v17.05c-0.949,11.049-6.442,21.174-14.419,26.574l-56.094,32.164
	c-0.19,0.11-0.377,0.225-0.56,0.346c-7.834,5.173-17.184,5.173-25.018,0c-0.187-0.123-0.377-0.241-0.573-0.352l-56.259-32.161
	C178.652,277.61,173.352,267.725,172.391,256.448z M232.25,333.163c7.334,4.763,15.529,7.144,23.725,7.144
	c8.198,0,16.396-2.383,23.731-7.148l7.931-4.548v4.288c0,0.213,0.019,0.422,0.023,0.633c-7.494,9.916-19.079,15.755-31.635,15.755
	c-12.618,0-24.242-5.886-31.734-15.88c0.003-0.17,0.019-0.337,0.019-0.509v-4.274L232.25,333.163z M123.247,484.504V413.86
	c0-11.776,7.321-23.707,17.029-27.753l55.456-23.107l15.802,44.261c2.706,7.581,13.057,9.289,18.049,2.951l15.996-20.316v94.609
	H123.247V484.504z M388.702,484.504H266.474v-94.611l15.997,20.318c4.992,6.34,15.343,4.631,18.049-2.951l15.789-44.223
	l55.366,23.069c9.707,4.044,17.028,15.976,17.028,27.753V484.504z"/>
<path d="M256.158,68.895c-20.619,0-37.394,16.775-37.394,37.394s16.775,37.394,37.394,37.394s37.394-16.775,37.394-37.394
	S276.777,68.895,256.158,68.895z M256.158,122.787c-9.097,0-16.498-7.401-16.498-16.498s7.401-16.498,16.498-16.498
	c9.097,0,16.498,7.401,16.498,16.498S265.255,122.787,256.158,122.787z"/>
<path d="M512,75.422c0-20.426-16.617-37.044-37.044-37.044h-65.929c-20.427,0-37.044,16.617-37.044,37.044
	c0,16.798,11.243,31.012,26.596,35.533v29.636c0,4.031,2.286,7.523,5.63,9.265v72.236c0,9.902,3.833,18.92,10.087,25.664v38.15
	c0,5.77,4.679,10.448,10.448,10.448h6.798v21.209c0,5.77,4.679,10.448,10.448,10.448s10.448-4.678,10.448-10.448v-21.209h6.798
	c5.769,0,10.448-4.678,10.448-10.448v-38.15c6.254-6.744,10.087-15.763,10.087-25.664v-72.006c3.6-1.65,6.107-5.275,6.107-9.494
	V110.82C500.991,106.147,512,92.046,512,75.422z M464.984,130.143h-45.509v-17.677h45.509V130.143z M448.79,275.458h-13.597V259.25
	c2.207,0.403,4.477,0.625,6.798,0.625s4.592-0.222,6.798-0.625L448.79,275.458L448.79,275.458z M458.878,222.092
	c0,9.311-7.575,16.886-16.886,16.886s-16.886-7.575-16.886-16.886v-71.053h33.772L458.878,222.092L458.878,222.092z M474.956,91.57
	h-65.929c-8.904,0-16.148-7.245-16.148-16.148s7.245-16.148,16.148-16.148h65.929c8.904,0,16.148,7.245,16.148,16.148
	S483.86,91.57,474.956,91.57z"/>
</svg>